<svg width="36" height="36" viewBox="0 0 36 36" fill="none" xmlns="http://www.w3.org/2000/svg">
<circle cx="18.375" cy="18.2505" r="15" fill="#C4C4C4" stroke="black" stroke-width="0.5"/>
<path d="M31.8748 18.375C31.8748 25.902 25.8285 32 18.3748 32C10.921 32 4.87476 25.902 4.87476 18.375C4.87476 10.848 10.921 4.75 18.3748 4.75C25.8285 4.75 31.8748 10.848 31.8748 18.375Z" stroke="black" stroke-width="0.5"/>
<path d="M22.5 26.25L22.375 26.125L21.875 25.5L21.375 25L20.875 24.5L19.375 23L18.125 21.625L17 20.625L15.25 19L14.5 18.375L13 17.125L12.125 16.375L11.125 15.625L10 14.75L8.5 13.625L7 12.5L5.25 11.25L4 10.375L3.25 9.875L2.75 9.5L2.25 9.25L1.25 8.625L1 8.375V8.125V7.875L1.125 7.75L1.625 7.5L2.875 7.375L4.125 7.5L5.625 7.875L4.375 5.875L4.125 5.375L3.5 4.5L3.375 4.25V3.75L3.5 3.5L3.75 3.375H4.125L5.5 4.25L7.25 5.25L7.875 5.625V5.5L7.75 5L7.625 4.5L7.5 4L7.375 3.125V2.75V2.25L7.5 1.75L7.625 1.375L7.75 1.125L7.875 1H8.25L8.5 1.125L9.75 3L11.375 5.375L12.125 6.375L13 7.625L13.875 8.875L15.25 10.625L15.625 11.125L16.375 12.125L17.375 13.375L19 15.25L20.125 16.5L22.125 18.625L24 20.375L25.75 22.125L26.25 22.5L26.875 22.625H28.25L29.125 22.75L29.875 23L30.5 23.375L31.125 23.75L31.5 24.125L31.875 24.5L32.125 24.875L32.375 25.25L32.75 26L33 26.625L33.125 27.25V28.25L33 28.875L32.75 29.5L32.5 30.125L32.125 30.75H33L33.875 30.875L34.625 31L34.875 31.125L35 31.375V31.625L34.875 31.875L34.625 32.125H34.375H34.25H33.875L33.625 32L32.875 31.875L33 32L33.125 32.25L33.375 32.5L33.5 32.625L33.625 32.875V33.125L33.5 33.375L33.25 33.5L33 33.625L32.75 33.5L32.5 33.25L32.375 33.125L32.25 33L32 32.75V32.875V33.5L32.125 34V34.375V34.625L32 34.875L31.875 35H31.625H31.375L31.25 34.875L31.125 34.75L31 34.625V34.5V34.125L30.875 33.5L30.75 32.625V32.125L30.125 32.5L29.625 32.75L29.125 32.875L28.625 33H28.125H27.625H27.125H26.75L26.375 32.875L25.875 32.625L25.625 32.5L25 32.125L24.5 31.75L24 31.375L23.625 30.875L23.375 30.5L23.125 30L23 29.625L22.875 29.125L22.75 28.75L22.625 28.375V27.875V27.5V27.25V27V26.75V26.5L22.5 26.25Z" fill="#7A8085" stroke="black" stroke-width="0.5"/>
<path d="M7.37499 8.62451L5.77569 5.79498L8.62499 7.37451L9.74999 9.74951L7.37499 8.62451Z" fill="black"/>
<path d="M13.25 9.99951L16.625 14.2495L14.5 12.7495L12 10.9995L11.875 10.8745L10.125 7.74951L9.5 6.49951L9.125 5.62451L8.875 4.74951L8.75 4.12451L8.625 3.37451L10.875 6.62451L13.25 9.99951Z" fill="black"/>
<path d="M4.375 9.24951L3.375 8.62451H3.75L4.375 8.74951L5.25 8.99951L7 9.74951L8 10.2495L9.5 10.9995L10.5 11.6245L12.625 12.8745L15.25 14.7495L17.625 16.6245L19.375 17.9995L20.75 19.1245L22.25 20.3745L20.375 22.2495L18.5 20.3745L16.5 18.4995L14.5 16.7495L11.125 13.9995L7.875 11.6245L5.5 9.99951L4.375 9.24951Z" fill="black"/>
<path d="M23.125 21.2495L21.25 23.1245V23.2495L22.125 24.1245L22.875 24.8745L23.25 25.2495L23.5 25.6245L23.625 25.8745L23.75 26.1245V26.7495V27.6245L23.875 28.6245L24.125 29.4995L24.75 30.3745L25.5 31.1245L26.5 31.6245L27.5 31.8745H28.5L29.375 31.6245L30.125 31.1245L30.875 30.4995L31.375 29.8745L31.75 28.9995L31.875 28.1245V27.3745L31.75 26.7495L31.625 26.2495L31.25 25.6245L30.875 25.1245L30.5 24.7495L30.125 24.4995L29.75 24.2495L29.25 23.9995L28.75 23.8745L28.25 23.7495H27.75H27.125H26.5L25.75 23.6245L25.375 23.2495L23.125 21.2495Z" fill="black"/>
<path d="M5.74999 5.74951L7.37499 8.62451L9.74999 9.74951L8.62499 7.37451L5.69366 5.74951M16.625 14.2495L13.25 9.99951L10.875 6.62451L8.625 3.37451L8.75 4.12451L8.875 4.74951L9.125 5.62451L9.5 6.49951L10.125 7.74951L11.875 10.8745L12 10.9995L14.5 12.7495L16.625 14.2495ZM3.375 8.62451L4.375 9.24951L5.5 9.99951L7.875 11.6245L11.125 13.9995L14.5 16.7495L16.5 18.4995L18.5 20.3745L20.375 22.2495L22.25 20.3745L20.75 19.1245L19.375 17.9995L17.625 16.6245L15.25 14.7495L12.625 12.8745L10.5 11.6245L9.5 10.9995L8 10.2495L7 9.74951L5.25 8.99951L4.375 8.74951L3.75 8.62451H3.375ZM21.25 23.1245L23.125 21.2495L25.375 23.2495L25.75 23.6245L26.5 23.7495H27.125H27.75H28.25L28.75 23.8745L29.25 23.9995L29.75 24.2495L30.125 24.4995L30.5 24.7495L30.875 25.1245L31.25 25.6245L31.625 26.2495L31.75 26.7495L31.875 27.3745V28.1245L31.75 28.9995L31.375 29.8745L30.875 30.4995L30.125 31.1245L29.375 31.6245L28.5 31.8745H27.5L26.5 31.6245L25.5 31.1245L24.75 30.3745L24.125 29.4995L23.875 28.6245L23.75 27.6245V26.7495V26.1245L23.625 25.8745L23.5 25.6245L23.25 25.2495L22.875 24.8745L22.125 24.1245L21.25 23.2495V23.1245Z" stroke="black" stroke-width="0.5"/>
<path d="M4.875 30.875L6 31.875L32 5.75L31 4.75L4.875 30.875Z" fill="black" stroke="black" stroke-width="0.5"/>
</svg>
